# xmcd CD database file
#
# Track frame offsets:
#	150
#	10652
#	20549
#	37076
#	54873
#	73467
#	99781
#	115436
#	132064
#	144099
#	159226
#
# Disc length: 2331 seconds
#
# Revision: 1
# Processed by: cddbd v1.5.1PL0 Copyright (c) Steve Scherf et al.
# Submitted via: CDex 1.50
#
DISCID=8609190b
DTITLE=Ben Weaver - Living In The Ground
DYEAR=2003
DGENRE=Blues
TTITLE0=Ella Mae
TTITLE1=Bill Brown
TTITLE2=Precious Time
TTITLE3=Rainstorm In Iowa
TTITLE4=International Flat Bed
TTITLE5=Living In The Ground
TTITLE6=Rose Marie
TTITLE7=Dusty Mill
TTITLE8=Jon Henry
TTITLE9=2 Girls
TTITLE10=This Train
EXTD=YEAR: 2003
EXTT0=
EXTT1=
EXTT2=
EXTT3=
EXTT4=
EXTT5=
EXTT6=
EXTT7=
EXTT8=
EXTT9=
EXTT10=
PLAYORDER=
